<svg width="919" height="1041" viewBox="0 0 919 1041" fill="none" xmlns="http://www.w3.org/2000/svg">
<g clip-path="url(#clip0_2350_2463)">
<rect width="919" height="1041" fill="#382E7A"/>
<path d="M-2.39201 289.331L-22.7251 270.5C-23.8979 269.414 -23.8979 267.654 -22.7251 266.568L34.0229 214.014C35.1945 212.928 37.0952 212.928 38.2668 214.014L95.0148 266.568C96.1876 267.654 96.1876 269.414 95.0148 270.5L38.2668 323.054C37.0952 324.14 35.1945 324.14 34.0229 323.054L20.1946 310.249" stroke="white" stroke-width="12.469" stroke-miterlimit="10"/>
<mask id="mask0_2350_2463" style="mask-type:luminance" maskUnits="userSpaceOnUse" x="-83" y="206" width="135" height="126">
<path d="M-83 332H51.8286V206H-83V332Z" fill="white"/>
</mask>
<g mask="url(#mask0_2350_2463)">
<path d="M22.9512 248.203L43.2843 267.034C44.4572 268.12 44.4572 269.88 43.2843 270.966L-13.4637 323.52C-14.6353 324.606 -16.5359 324.606 -17.7076 323.52L-74.4556 270.966C-75.6284 269.88 -75.6284 268.12 -74.4556 267.034L-17.7076 214.48C-16.5359 213.394 -14.6353 213.394 -13.4637 214.48L0.364655 227.285" stroke="white" stroke-width="12.469" stroke-miterlimit="10"/>
</g>
<path d="M176.608 281.331L156.275 262.5C155.102 261.414 155.102 259.654 156.275 258.568L213.023 206.014C214.195 204.928 216.095 204.928 217.267 206.014L274.015 258.568C275.188 259.654 275.188 261.414 274.015 262.5L217.267 315.054C216.095 316.14 214.195 316.14 213.023 315.054L199.195 302.249" stroke="white" stroke-width="12.469" stroke-miterlimit="10"/>
<mask id="mask1_2350_2463" style="mask-type:luminance" maskUnits="userSpaceOnUse" x="96" y="198" width="135" height="126">
<path d="M96 324H230.829V198H96V324Z" fill="white"/>
</mask>
<g mask="url(#mask1_2350_2463)">
<path d="M201.951 240.203L222.284 259.034C223.457 260.12 223.457 261.88 222.284 262.966L165.536 315.52C164.365 316.606 162.464 316.606 161.292 315.52L104.544 262.966C103.372 261.88 103.372 260.12 104.544 259.034L161.292 206.48C162.464 205.394 164.365 205.394 165.536 206.48L179.365 219.285" stroke="white" stroke-width="12.469" stroke-miterlimit="10"/>
</g>
<path d="M355.608 281.331L335.275 262.5C334.102 261.414 334.102 259.654 335.275 258.568L392.023 206.014C393.195 204.928 395.095 204.928 396.267 206.014L453.015 258.568C454.188 259.654 454.188 261.414 453.015 262.5L396.267 315.054C395.095 316.14 393.195 316.14 392.023 315.054L378.195 302.249" stroke="white" stroke-width="12.469" stroke-miterlimit="10"/>
<mask id="mask2_2350_2463" style="mask-type:luminance" maskUnits="userSpaceOnUse" x="275" y="198" width="135" height="126">
<path d="M275 324H409.829V198H275V324Z" fill="white"/>
</mask>
<g mask="url(#mask2_2350_2463)">
<path d="M380.951 240.203L401.284 259.034C402.457 260.12 402.457 261.88 401.284 262.966L344.536 315.52C343.365 316.606 341.464 316.606 340.292 315.52L283.544 262.966C282.372 261.88 282.372 260.12 283.544 259.034L340.292 206.48C341.464 205.394 343.365 205.394 344.536 206.48L358.365 219.285" stroke="white" stroke-width="12.469" stroke-miterlimit="10"/>
</g>
<path d="M534.608 281.331L514.275 262.5C513.102 261.414 513.102 259.654 514.275 258.568L571.023 206.014C572.195 204.928 574.095 204.928 575.267 206.014L632.015 258.568C633.188 259.654 633.188 261.414 632.015 262.5L575.267 315.054C574.095 316.14 572.195 316.14 571.023 315.054L557.195 302.249" stroke="white" stroke-width="12.469" stroke-miterlimit="10"/>
<mask id="mask3_2350_2463" style="mask-type:luminance" maskUnits="userSpaceOnUse" x="454" y="198" width="135" height="126">
<path d="M454 324H588.829V198H454V324Z" fill="white"/>
</mask>
<g mask="url(#mask3_2350_2463)">
<path d="M559.951 240.203L580.284 259.034C581.457 260.12 581.457 261.88 580.284 262.966L523.536 315.52C522.365 316.606 520.464 316.606 519.292 315.52L462.544 262.966C461.372 261.88 461.372 260.12 462.544 259.034L519.292 206.48C520.464 205.394 522.365 205.394 523.536 206.48L537.365 219.285" stroke="white" stroke-width="12.469" stroke-miterlimit="10"/>
</g>
<path d="M713.608 281.331L693.275 262.5C692.102 261.414 692.102 259.654 693.275 258.568L750.023 206.014C751.195 204.928 753.095 204.928 754.267 206.014L811.015 258.568C812.188 259.654 812.188 261.414 811.015 262.5L754.267 315.054C753.095 316.14 751.195 316.14 750.023 315.054L736.195 302.249" stroke="white" stroke-width="12.469" stroke-miterlimit="10"/>
<mask id="mask4_2350_2463" style="mask-type:luminance" maskUnits="userSpaceOnUse" x="633" y="198" width="135" height="126">
<path d="M633 324H767.829V198H633V324Z" fill="white"/>
</mask>
<g mask="url(#mask4_2350_2463)">
<path d="M738.951 240.203L759.284 259.034C760.457 260.12 760.457 261.88 759.284 262.966L702.536 315.52C701.365 316.606 699.464 316.606 698.292 315.52L641.544 262.966C640.372 261.88 640.372 260.12 641.544 259.034L698.292 206.48C699.464 205.394 701.365 205.394 702.536 206.48L716.365 219.285" stroke="white" stroke-width="12.469" stroke-miterlimit="10"/>
</g>
<path d="M892.608 281.331L872.275 262.5C871.102 261.414 871.102 259.654 872.275 258.568L929.023 206.014C930.195 204.928 932.095 204.928 933.267 206.014L990.015 258.568C991.188 259.654 991.188 261.414 990.015 262.5L933.267 315.054C932.095 316.14 930.195 316.14 929.023 315.054L915.195 302.249" stroke="white" stroke-width="12.469" stroke-miterlimit="10"/>
<mask id="mask5_2350_2463" style="mask-type:luminance" maskUnits="userSpaceOnUse" x="812" y="198" width="135" height="126">
<path d="M812 324H946.829V198H812V324Z" fill="white"/>
</mask>
<g mask="url(#mask5_2350_2463)">
<path d="M917.951 240.203L938.284 259.034C939.457 260.12 939.457 261.88 938.284 262.966L881.536 315.52C880.365 316.606 878.464 316.606 877.292 315.52L820.544 262.966C819.372 261.88 819.372 260.12 820.544 259.034L877.292 206.48C878.464 205.394 880.365 205.394 881.536 206.48L895.365 219.285" stroke="white" stroke-width="12.469" stroke-miterlimit="10"/>
</g>
<path d="M-54.392 401.331L-74.7251 382.5C-75.8979 381.414 -75.8979 379.654 -74.7251 378.568L-17.9771 326.014C-16.8055 324.928 -14.9048 324.928 -13.7332 326.014L43.0148 378.568C44.1876 379.654 44.1876 381.414 43.0148 382.5L-13.7332 435.054C-14.9048 436.14 -16.8055 436.14 -17.9771 435.054L-31.8054 422.249" stroke="white" stroke-width="12.469" stroke-miterlimit="10"/>
<path d="M124.608 393.331L104.275 374.5C103.102 373.414 103.102 371.654 104.275 370.568L161.023 318.014C162.195 316.928 164.095 316.928 165.267 318.014L222.015 370.568C223.188 371.654 223.188 373.414 222.015 374.5L165.267 427.054C164.095 428.14 162.195 428.14 161.023 427.054L147.195 414.249" stroke="white" stroke-width="12.469" stroke-miterlimit="10"/>
<mask id="mask6_2350_2463" style="mask-type:luminance" maskUnits="userSpaceOnUse" x="44" y="310" width="135" height="126">
<path d="M44 436H178.829V310H44V436Z" fill="white"/>
</mask>
<g mask="url(#mask6_2350_2463)">
<path d="M149.951 352.203L170.284 371.034C171.457 372.12 171.457 373.88 170.284 374.966L113.536 427.52C112.365 428.606 110.464 428.606 109.292 427.52L52.5444 374.966C51.3716 373.88 51.3716 372.12 52.5444 371.034L109.292 318.48C110.464 317.394 112.365 317.394 113.536 318.48L127.365 331.285" stroke="white" stroke-width="12.469" stroke-miterlimit="10"/>
</g>
<path d="M303.608 393.331L283.275 374.5C282.102 373.414 282.102 371.654 283.275 370.568L340.023 318.014C341.195 316.928 343.095 316.928 344.267 318.014L401.015 370.568C402.188 371.654 402.188 373.414 401.015 374.5L344.267 427.054C343.095 428.14 341.195 428.14 340.023 427.054L326.195 414.249" stroke="white" stroke-width="12.469" stroke-miterlimit="10"/>
<mask id="mask7_2350_2463" style="mask-type:luminance" maskUnits="userSpaceOnUse" x="223" y="310" width="135" height="126">
<path d="M223 436H357.829V310H223V436Z" fill="white"/>
</mask>
<g mask="url(#mask7_2350_2463)">
<path d="M328.951 352.203L349.284 371.034C350.457 372.12 350.457 373.88 349.284 374.966L292.536 427.52C291.365 428.606 289.464 428.606 288.292 427.52L231.544 374.966C230.372 373.88 230.372 372.12 231.544 371.034L288.292 318.48C289.464 317.394 291.365 317.394 292.536 318.48L306.365 331.285" stroke="white" stroke-width="12.469" stroke-miterlimit="10"/>
</g>
<path d="M482.608 393.331L462.275 374.5C461.102 373.414 461.102 371.654 462.275 370.568L519.023 318.014C520.195 316.928 522.095 316.928 523.267 318.014L580.015 370.568C581.188 371.654 581.188 373.414 580.015 374.5L523.267 427.054C522.095 428.14 520.195 428.14 519.023 427.054L505.195 414.249" stroke="white" stroke-width="12.469" stroke-miterlimit="10"/>
<mask id="mask8_2350_2463" style="mask-type:luminance" maskUnits="userSpaceOnUse" x="402" y="310" width="135" height="126">
<path d="M402 436H536.829V310H402V436Z" fill="white"/>
</mask>
<g mask="url(#mask8_2350_2463)">
<path d="M507.951 352.203L528.284 371.034C529.457 372.12 529.457 373.88 528.284 374.966L471.536 427.52C470.365 428.606 468.464 428.606 467.292 427.52L410.544 374.966C409.372 373.88 409.372 372.12 410.544 371.034L467.292 318.48C468.464 317.394 470.365 317.394 471.536 318.48L485.365 331.285" stroke="white" stroke-width="12.469" stroke-miterlimit="10"/>
</g>
<path d="M661.608 393.331L641.275 374.5C640.102 373.414 640.102 371.654 641.275 370.568L698.023 318.014C699.195 316.928 701.095 316.928 702.267 318.014L759.015 370.568C760.188 371.654 760.188 373.414 759.015 374.5L702.267 427.054C701.095 428.14 699.195 428.14 698.023 427.054L684.195 414.249" stroke="white" stroke-width="12.469" stroke-miterlimit="10"/>
<mask id="mask9_2350_2463" style="mask-type:luminance" maskUnits="userSpaceOnUse" x="581" y="310" width="135" height="126">
<path d="M581 436H715.829V310H581V436Z" fill="white"/>
</mask>
<g mask="url(#mask9_2350_2463)">
<path d="M686.951 352.203L707.284 371.034C708.457 372.12 708.457 373.88 707.284 374.966L650.536 427.52C649.365 428.606 647.464 428.606 646.292 427.52L589.544 374.966C588.372 373.88 588.372 372.12 589.544 371.034L646.292 318.48C647.464 317.394 649.365 317.394 650.536 318.48L664.365 331.285" stroke="white" stroke-width="12.469" stroke-miterlimit="10"/>
</g>
<path d="M840.608 393.331L820.275 374.5C819.102 373.414 819.102 371.654 820.275 370.568L877.023 318.014C878.195 316.928 880.095 316.928 881.267 318.014L938.015 370.568C939.188 371.654 939.188 373.414 938.015 374.5L881.267 427.054C880.095 428.14 878.195 428.14 877.023 427.054L863.195 414.249" stroke="white" stroke-width="12.469" stroke-miterlimit="10"/>
<mask id="mask10_2350_2463" style="mask-type:luminance" maskUnits="userSpaceOnUse" x="760" y="310" width="135" height="126">
<path d="M760 436H894.829V310H760V436Z" fill="white"/>
</mask>
<g mask="url(#mask10_2350_2463)">
<path d="M865.951 352.203L886.284 371.034C887.457 372.12 887.457 373.88 886.284 374.966L829.536 427.52C828.365 428.606 826.464 428.606 825.292 427.52L768.544 374.966C767.372 373.88 767.372 372.12 768.544 371.034L825.292 318.48C826.464 317.394 828.365 317.394 829.536 318.48L843.365 331.285" stroke="white" stroke-width="12.469" stroke-miterlimit="10"/>
</g>
<path d="M-23.392 494.331L-43.7251 475.5C-44.8979 474.414 -44.8979 472.654 -43.7251 471.568L13.0229 419.014C14.1945 417.928 16.0952 417.928 17.2668 419.014L74.0148 471.568C75.1876 472.654 75.1876 474.414 74.0148 475.5L17.2668 528.054C16.0952 529.14 14.1945 529.14 13.0229 528.054L-0.805423 515.249" stroke="white" stroke-width="12.469" stroke-miterlimit="10"/>
<mask id="mask11_2350_2463" style="mask-type:luminance" maskUnits="userSpaceOnUse" x="-104" y="411" width="135" height="126">
<path d="M-104 537H30.8286V411H-104V537Z" fill="white"/>
</mask>
<g mask="url(#mask11_2350_2463)">
<path d="M1.95124 453.203L22.2843 472.034C23.4572 473.12 23.4572 474.88 22.2843 475.966L-34.4637 528.52C-35.6353 529.606 -37.5359 529.606 -38.7076 528.52L-95.4556 475.966C-96.6284 474.88 -96.6284 473.12 -95.4556 472.034L-38.7076 419.48C-37.5359 418.394 -35.6353 418.394 -34.4637 419.48L-20.6353 432.285" stroke="white" stroke-width="12.469" stroke-miterlimit="10"/>
</g>
<path d="M155.608 486.331L135.275 467.5C134.102 466.414 134.102 464.654 135.275 463.568L192.023 411.014C193.195 409.928 195.095 409.928 196.267 411.014L253.015 463.568C254.188 464.654 254.188 466.414 253.015 467.5L196.267 520.054C195.095 521.14 193.195 521.14 192.023 520.054L178.195 507.249" stroke="white" stroke-width="12.469" stroke-miterlimit="10"/>
<mask id="mask12_2350_2463" style="mask-type:luminance" maskUnits="userSpaceOnUse" x="75" y="403" width="135" height="126">
<path d="M75 529H209.829V403H75V529Z" fill="white"/>
</mask>
<g mask="url(#mask12_2350_2463)">
<path d="M180.951 445.203L201.284 464.034C202.457 465.12 202.457 466.88 201.284 467.966L144.536 520.52C143.365 521.606 141.464 521.606 140.292 520.52L83.5444 467.966C82.3716 466.88 82.3716 465.12 83.5444 464.034L140.292 411.48C141.464 410.394 143.365 410.394 144.536 411.48L158.365 424.285" stroke="white" stroke-width="12.469" stroke-miterlimit="10"/>
</g>
<path d="M334.608 486.331L314.275 467.5C313.102 466.414 313.102 464.654 314.275 463.568L371.023 411.014C372.195 409.928 374.095 409.928 375.267 411.014L432.015 463.568C433.188 464.654 433.188 466.414 432.015 467.5L375.267 520.054C374.095 521.14 372.195 521.14 371.023 520.054L357.195 507.249" stroke="white" stroke-width="12.469" stroke-miterlimit="10"/>
<mask id="mask13_2350_2463" style="mask-type:luminance" maskUnits="userSpaceOnUse" x="254" y="403" width="135" height="126">
<path d="M254 529H388.829V403H254V529Z" fill="white"/>
</mask>
<g mask="url(#mask13_2350_2463)">
<path d="M359.951 445.203L380.284 464.034C381.457 465.12 381.457 466.88 380.284 467.966L323.536 520.52C322.365 521.606 320.464 521.606 319.292 520.52L262.544 467.966C261.372 466.88 261.372 465.12 262.544 464.034L319.292 411.48C320.464 410.394 322.365 410.394 323.536 411.48L337.365 424.285" stroke="white" stroke-width="12.469" stroke-miterlimit="10"/>
</g>
<path d="M513.608 486.331L493.275 467.5C492.102 466.414 492.102 464.654 493.275 463.568L550.023 411.014C551.195 409.928 553.095 409.928 554.267 411.014L611.015 463.568C612.188 464.654 612.188 466.414 611.015 467.5L554.267 520.054C553.095 521.14 551.195 521.14 550.023 520.054L536.195 507.249" stroke="white" stroke-width="12.469" stroke-miterlimit="10"/>
<mask id="mask14_2350_2463" style="mask-type:luminance" maskUnits="userSpaceOnUse" x="433" y="403" width="135" height="126">
<path d="M433 529H567.829V403H433V529Z" fill="white"/>
</mask>
<g mask="url(#mask14_2350_2463)">
<path d="M538.951 445.203L559.284 464.034C560.457 465.12 560.457 466.88 559.284 467.966L502.536 520.52C501.365 521.606 499.464 521.606 498.292 520.52L441.544 467.966C440.372 466.88 440.372 465.12 441.544 464.034L498.292 411.48C499.464 410.394 501.365 410.394 502.536 411.48L516.365 424.285" stroke="white" stroke-width="12.469" stroke-miterlimit="10"/>
</g>
<path d="M692.608 486.331L672.275 467.5C671.102 466.414 671.102 464.654 672.275 463.568L729.023 411.014C730.195 409.928 732.095 409.928 733.267 411.014L790.015 463.568C791.188 464.654 791.188 466.414 790.015 467.5L733.267 520.054C732.095 521.14 730.195 521.14 729.023 520.054L715.195 507.249" stroke="white" stroke-width="12.469" stroke-miterlimit="10"/>
<mask id="mask15_2350_2463" style="mask-type:luminance" maskUnits="userSpaceOnUse" x="612" y="403" width="135" height="126">
<path d="M612 529H746.829V403H612V529Z" fill="white"/>
</mask>
<g mask="url(#mask15_2350_2463)">
<path d="M717.951 445.203L738.284 464.034C739.457 465.12 739.457 466.88 738.284 467.966L681.536 520.52C680.365 521.606 678.464 521.606 677.292 520.52L620.544 467.966C619.372 466.88 619.372 465.12 620.544 464.034L677.292 411.48C678.464 410.394 680.365 410.394 681.536 411.48L695.365 424.285" stroke="white" stroke-width="12.469" stroke-miterlimit="10"/>
</g>
<path d="M871.608 486.331L851.275 467.5C850.102 466.414 850.102 464.654 851.275 463.568L908.023 411.014C909.195 409.928 911.095 409.928 912.267 411.014L969.015 463.568C970.188 464.654 970.188 466.414 969.015 467.5L912.267 520.054C911.095 521.14 909.195 521.14 908.023 520.054L894.195 507.249" stroke="white" stroke-width="12.469" stroke-miterlimit="10"/>
<mask id="mask16_2350_2463" style="mask-type:luminance" maskUnits="userSpaceOnUse" x="791" y="403" width="135" height="126">
<path d="M791 529H925.829V403H791V529Z" fill="white"/>
</mask>
<g mask="url(#mask16_2350_2463)">
<path d="M896.951 445.203L917.284 464.034C918.457 465.12 918.457 466.88 917.284 467.966L860.536 520.52C859.365 521.606 857.464 521.606 856.292 520.52L799.544 467.966C798.372 466.88 798.372 465.12 799.544 464.034L856.292 411.48C857.464 410.394 859.365 410.394 860.536 411.48L874.365 424.285" stroke="white" stroke-width="12.469" stroke-miterlimit="10"/>
</g>
<path d="M2.60799 91.3307L-17.7251 72.5C-18.8979 71.4144 -18.8979 69.6539 -17.7251 68.5683L39.0229 16.0138C40.1945 14.9283 42.0952 14.9283 43.2668 16.0138L100.015 68.5683C101.188 69.6539 101.188 71.4144 100.015 72.5L43.2668 125.054C42.0952 126.14 40.1945 126.14 39.0229 125.054L25.1946 112.249" stroke="white" stroke-width="12.469" stroke-miterlimit="10"/>
<mask id="mask17_2350_2463" style="mask-type:luminance" maskUnits="userSpaceOnUse" x="-78" y="8" width="135" height="126">
<path d="M-78 134H56.8286V8H-78V134Z" fill="white"/>
</mask>
<g mask="url(#mask17_2350_2463)">
<path d="M27.9512 50.2034L48.2843 69.0342C49.4572 70.1197 49.4572 71.8802 48.2843 72.9658L-8.46367 125.52C-9.63529 126.606 -11.5359 126.606 -12.7076 125.52L-69.4556 72.9658C-70.6284 71.8802 -70.6284 70.1197 -69.4556 69.0342L-12.7076 16.4797C-11.5359 15.3941 -9.63529 15.3941 -8.46367 16.4797L5.36466 29.2851" stroke="white" stroke-width="12.469" stroke-miterlimit="10"/>
</g>
<path d="M181.608 83.3307L161.275 64.5C160.102 63.4144 160.102 61.6539 161.275 60.5683L218.023 8.01384C219.195 6.92828 221.095 6.92828 222.267 8.01384L279.015 60.5683C280.188 61.6539 280.188 63.4144 279.015 64.5L222.267 117.054C221.095 118.14 219.195 118.14 218.023 117.054L204.195 104.249" stroke="white" stroke-width="12.469" stroke-miterlimit="10"/>
<mask id="mask18_2350_2463" style="mask-type:luminance" maskUnits="userSpaceOnUse" x="101" y="0" width="135" height="126">
<path d="M101 126H235.829V-3.53589e-06H101V126Z" fill="white"/>
</mask>
<g mask="url(#mask18_2350_2463)">
<path d="M206.951 42.2034L227.284 61.0342C228.457 62.1197 228.457 63.8802 227.284 64.9658L170.536 117.52C169.365 118.606 167.464 118.606 166.292 117.52L109.544 64.9658C108.372 63.8802 108.372 62.1197 109.544 61.0342L166.292 8.47966C167.464 7.3941 169.365 7.3941 170.536 8.47966L184.365 21.2851" stroke="white" stroke-width="12.469" stroke-miterlimit="10"/>
</g>
<path d="M360.608 83.3307L340.275 64.5C339.102 63.4144 339.102 61.6539 340.275 60.5683L397.023 8.01384C398.195 6.92828 400.095 6.92828 401.267 8.01384L458.015 60.5683C459.188 61.6539 459.188 63.4144 458.015 64.5L401.267 117.054C400.095 118.14 398.195 118.14 397.023 117.054L383.195 104.249" stroke="white" stroke-width="12.469" stroke-miterlimit="10"/>
<mask id="mask19_2350_2463" style="mask-type:luminance" maskUnits="userSpaceOnUse" x="280" y="0" width="135" height="126">
<path d="M280 126H414.829V-3.53589e-06H280V126Z" fill="white"/>
</mask>
<g mask="url(#mask19_2350_2463)">
<path d="M385.951 42.2034L406.284 61.0342C407.457 62.1197 407.457 63.8802 406.284 64.9658L349.536 117.52C348.365 118.606 346.464 118.606 345.292 117.52L288.544 64.9658C287.372 63.8802 287.372 62.1197 288.544 61.0342L345.292 8.47966C346.464 7.3941 348.365 7.3941 349.536 8.47966L363.365 21.2851" stroke="white" stroke-width="12.469" stroke-miterlimit="10"/>
</g>
<path d="M539.608 83.3307L519.275 64.5C518.102 63.4144 518.102 61.6539 519.275 60.5683L576.023 8.01384C577.195 6.92828 579.095 6.92828 580.267 8.01384L637.015 60.5683C638.188 61.6539 638.188 63.4144 637.015 64.5L580.267 117.054C579.095 118.14 577.195 118.14 576.023 117.054L562.195 104.249" stroke="white" stroke-width="12.469" stroke-miterlimit="10"/>
<mask id="mask20_2350_2463" style="mask-type:luminance" maskUnits="userSpaceOnUse" x="459" y="0" width="135" height="126">
<path d="M459 126H593.829V-3.53589e-06H459V126Z" fill="white"/>
</mask>
<g mask="url(#mask20_2350_2463)">
<path d="M564.951 42.2034L585.284 61.0342C586.457 62.1197 586.457 63.8802 585.284 64.9658L528.536 117.52C527.365 118.606 525.464 118.606 524.292 117.52L467.544 64.9658C466.372 63.8802 466.372 62.1197 467.544 61.0342L524.292 8.47966C525.464 7.3941 527.365 7.3941 528.536 8.47966L542.365 21.2851" stroke="white" stroke-width="12.469" stroke-miterlimit="10"/>
</g>
<path d="M718.608 83.3307L698.275 64.5C697.102 63.4144 697.102 61.6539 698.275 60.5683L755.023 8.01384C756.195 6.92828 758.095 6.92828 759.267 8.01384L816.015 60.5683C817.188 61.6539 817.188 63.4144 816.015 64.5L759.267 117.054C758.095 118.14 756.195 118.14 755.023 117.054L741.195 104.249" stroke="white" stroke-width="12.469" stroke-miterlimit="10"/>
<mask id="mask21_2350_2463" style="mask-type:luminance" maskUnits="userSpaceOnUse" x="638" y="0" width="135" height="126">
<path d="M638 126H772.829V-3.53589e-06H638V126Z" fill="white"/>
</mask>
<g mask="url(#mask21_2350_2463)">
<path d="M743.951 42.2034L764.284 61.0342C765.457 62.1197 765.457 63.8802 764.284 64.9658L707.536 117.52C706.365 118.606 704.464 118.606 703.292 117.52L646.544 64.9658C645.372 63.8802 645.372 62.1197 646.544 61.0342L703.292 8.47966C704.464 7.3941 706.365 7.3941 707.536 8.47966L721.365 21.2851" stroke="white" stroke-width="12.469" stroke-miterlimit="10"/>
</g>
<path d="M897.608 83.3307L877.275 64.5C876.102 63.4144 876.102 61.6539 877.275 60.5683L934.023 8.01384C935.195 6.92828 937.095 6.92828 938.267 8.01384L995.015 60.5683C996.188 61.6539 996.188 63.4144 995.015 64.5L938.267 117.054C937.095 118.14 935.195 118.14 934.023 117.054L920.195 104.249" stroke="white" stroke-width="12.469" stroke-miterlimit="10"/>
<mask id="mask22_2350_2463" style="mask-type:luminance" maskUnits="userSpaceOnUse" x="817" y="0" width="135" height="126">
<path d="M817 126H951.829V-3.53589e-06H817V126Z" fill="white"/>
</mask>
<g mask="url(#mask22_2350_2463)">
<path d="M922.951 42.2034L943.284 61.0342C944.457 62.1197 944.457 63.8802 943.284 64.9658L886.536 117.52C885.365 118.606 883.464 118.606 882.292 117.52L825.544 64.9658C824.372 63.8802 824.372 62.1197 825.544 61.0342L882.292 8.47966C883.464 7.3941 885.365 7.3941 886.536 8.47966L900.365 21.2851" stroke="white" stroke-width="12.469" stroke-miterlimit="10"/>
</g>
<path d="M2.60799 1007.33L-17.7251 988.5C-18.8979 987.414 -18.8979 985.654 -17.7251 984.568L39.0229 932.014C40.1945 930.928 42.0952 930.928 43.2668 932.014L100.015 984.568C101.188 985.654 101.188 987.414 100.015 988.5L43.2668 1041.05C42.0952 1042.14 40.1945 1042.14 39.0229 1041.05L25.1946 1028.25" stroke="white" stroke-width="12.469" stroke-miterlimit="10"/>
<mask id="mask23_2350_2463" style="mask-type:luminance" maskUnits="userSpaceOnUse" x="-78" y="924" width="135" height="126">
<path d="M-78 1050H56.8286V924H-78V1050Z" fill="white"/>
</mask>
<g mask="url(#mask23_2350_2463)">
<path d="M27.9512 966.203L48.2843 985.034C49.4572 986.12 49.4572 987.88 48.2843 988.966L-8.46367 1041.52C-9.63529 1042.61 -11.5359 1042.61 -12.7076 1041.52L-69.4556 988.966C-70.6284 987.88 -70.6284 986.12 -69.4556 985.034L-12.7076 932.48C-11.5359 931.394 -9.63529 931.394 -8.46367 932.48L5.36466 945.285" stroke="white" stroke-width="12.469" stroke-miterlimit="10"/>
</g>
<path d="M181.608 999.331L161.275 980.5C160.102 979.414 160.102 977.654 161.275 976.568L218.023 924.014C219.195 922.928 221.095 922.928 222.267 924.014L279.015 976.568C280.188 977.654 280.188 979.414 279.015 980.5L222.267 1033.05C221.095 1034.14 219.195 1034.14 218.023 1033.05L204.195 1020.25" stroke="white" stroke-width="12.469" stroke-miterlimit="10"/>
<mask id="mask24_2350_2463" style="mask-type:luminance" maskUnits="userSpaceOnUse" x="101" y="916" width="135" height="126">
<path d="M101 1042H235.829V916H101V1042Z" fill="white"/>
</mask>
<g mask="url(#mask24_2350_2463)">
<path d="M206.951 958.203L227.284 977.034C228.457 978.12 228.457 979.88 227.284 980.966L170.536 1033.52C169.365 1034.61 167.464 1034.61 166.292 1033.52L109.544 980.966C108.372 979.88 108.372 978.12 109.544 977.034L166.292 924.48C167.464 923.394 169.365 923.394 170.536 924.48L184.365 937.285" stroke="white" stroke-width="12.469" stroke-miterlimit="10"/>
</g>
<path d="M360.608 999.331L340.275 980.5C339.102 979.414 339.102 977.654 340.275 976.568L397.023 924.014C398.195 922.928 400.095 922.928 401.267 924.014L458.015 976.568C459.188 977.654 459.188 979.414 458.015 980.5L401.267 1033.05C400.095 1034.14 398.195 1034.14 397.023 1033.05L383.195 1020.25" stroke="white" stroke-width="12.469" stroke-miterlimit="10"/>
<mask id="mask25_2350_2463" style="mask-type:luminance" maskUnits="userSpaceOnUse" x="280" y="916" width="135" height="126">
<path d="M280 1042H414.829V916H280V1042Z" fill="white"/>
</mask>
<g mask="url(#mask25_2350_2463)">
<path d="M385.951 958.203L406.284 977.034C407.457 978.12 407.457 979.88 406.284 980.966L349.536 1033.52C348.365 1034.61 346.464 1034.61 345.292 1033.52L288.544 980.966C287.372 979.88 287.372 978.12 288.544 977.034L345.292 924.48C346.464 923.394 348.365 923.394 349.536 924.48L363.365 937.285" stroke="white" stroke-width="12.469" stroke-miterlimit="10"/>
</g>
<path d="M539.608 999.331L519.275 980.5C518.102 979.414 518.102 977.654 519.275 976.568L576.023 924.014C577.195 922.928 579.095 922.928 580.267 924.014L637.015 976.568C638.188 977.654 638.188 979.414 637.015 980.5L580.267 1033.05C579.095 1034.14 577.195 1034.14 576.023 1033.05L562.195 1020.25" stroke="white" stroke-width="12.469" stroke-miterlimit="10"/>
<mask id="mask26_2350_2463" style="mask-type:luminance" maskUnits="userSpaceOnUse" x="459" y="916" width="135" height="126">
<path d="M459 1042H593.829V916H459V1042Z" fill="white"/>
</mask>
<g mask="url(#mask26_2350_2463)">
<path d="M564.951 958.203L585.284 977.034C586.457 978.12 586.457 979.88 585.284 980.966L528.536 1033.52C527.365 1034.61 525.464 1034.61 524.292 1033.52L467.544 980.966C466.372 979.88 466.372 978.12 467.544 977.034L524.292 924.48C525.464 923.394 527.365 923.394 528.536 924.48L542.365 937.285" stroke="white" stroke-width="12.469" stroke-miterlimit="10"/>
</g>
<path d="M718.608 999.331L698.275 980.5C697.102 979.414 697.102 977.654 698.275 976.568L755.023 924.014C756.195 922.928 758.095 922.928 759.267 924.014L816.015 976.568C817.188 977.654 817.188 979.414 816.015 980.5L759.267 1033.05C758.095 1034.14 756.195 1034.14 755.023 1033.05L741.195 1020.25" stroke="white" stroke-width="12.469" stroke-miterlimit="10"/>
<mask id="mask27_2350_2463" style="mask-type:luminance" maskUnits="userSpaceOnUse" x="638" y="916" width="135" height="126">
<path d="M638 1042H772.829V916H638V1042Z" fill="white"/>
</mask>
<g mask="url(#mask27_2350_2463)">
<path d="M743.951 958.203L764.284 977.034C765.457 978.12 765.457 979.88 764.284 980.966L707.536 1033.52C706.365 1034.61 704.464 1034.61 703.292 1033.52L646.544 980.966C645.372 979.88 645.372 978.12 646.544 977.034L703.292 924.48C704.464 923.394 706.365 923.394 707.536 924.48L721.365 937.285" stroke="white" stroke-width="12.469" stroke-miterlimit="10"/>
</g>
<path d="M897.608 999.331L877.275 980.5C876.102 979.414 876.102 977.654 877.275 976.568L934.023 924.014C935.195 922.928 937.095 922.928 938.267 924.014L995.015 976.568C996.188 977.654 996.188 979.414 995.015 980.5L938.267 1033.05C937.095 1034.14 935.195 1034.14 934.023 1033.05L920.195 1020.25" stroke="white" stroke-width="12.469" stroke-miterlimit="10"/>
<mask id="mask28_2350_2463" style="mask-type:luminance" maskUnits="userSpaceOnUse" x="817" y="916" width="135" height="126">
<path d="M817 1042H951.829V916H817V1042Z" fill="white"/>
</mask>
<g mask="url(#mask28_2350_2463)">
<path d="M922.951 958.203L943.284 977.034C944.457 978.12 944.457 979.88 943.284 980.966L886.536 1033.52C885.365 1034.61 883.464 1034.61 882.292 1033.52L825.544 980.966C824.372 979.88 824.372 978.12 825.544 977.034L882.292 924.48C883.464 923.394 885.365 923.394 886.536 924.48L900.365 937.285" stroke="white" stroke-width="12.469" stroke-miterlimit="10"/>
</g>
<path d="M51.608 585.331L31.2749 566.5C30.1021 565.414 30.1021 563.654 31.2749 562.568L88.0229 510.014C89.1945 508.928 91.0952 508.928 92.2668 510.014L149.015 562.568C150.188 563.654 150.188 565.414 149.015 566.5L92.2668 619.054C91.0952 620.14 89.1945 620.14 88.0229 619.054L74.1946 606.249" stroke="white" stroke-width="12.469" stroke-miterlimit="10"/>
<mask id="mask29_2350_2463" style="mask-type:luminance" maskUnits="userSpaceOnUse" x="-29" y="502" width="135" height="126">
<path d="M-29 628H105.829V502H-29V628Z" fill="white"/>
</mask>
<g mask="url(#mask29_2350_2463)">
<path d="M76.9512 544.203L97.2843 563.034C98.4572 564.12 98.4572 565.88 97.2843 566.966L40.5363 619.52C39.3647 620.606 37.4641 620.606 36.2924 619.52L-20.4556 566.966C-21.6284 565.88 -21.6284 564.12 -20.4556 563.034L36.2924 510.48C37.4641 509.394 39.3647 509.394 40.5363 510.48L54.3647 523.285" stroke="white" stroke-width="12.469" stroke-miterlimit="10"/>
</g>
<path d="M230.608 577.331L210.275 558.5C209.102 557.414 209.102 555.654 210.275 554.568L267.023 502.014C268.195 500.928 270.095 500.928 271.267 502.014L328.015 554.568C329.188 555.654 329.188 557.414 328.015 558.5L271.267 611.054C270.095 612.14 268.195 612.14 267.023 611.054L253.195 598.249" stroke="white" stroke-width="12.469" stroke-miterlimit="10"/>
<mask id="mask30_2350_2463" style="mask-type:luminance" maskUnits="userSpaceOnUse" x="150" y="494" width="135" height="126">
<path d="M150 620H284.829V494H150V620Z" fill="white"/>
</mask>
<g mask="url(#mask30_2350_2463)">
<path d="M255.951 536.203L276.284 555.034C277.457 556.12 277.457 557.88 276.284 558.966L219.536 611.52C218.365 612.606 216.464 612.606 215.292 611.52L158.544 558.966C157.372 557.88 157.372 556.12 158.544 555.034L215.292 502.48C216.464 501.394 218.365 501.394 219.536 502.48L233.365 515.285" stroke="white" stroke-width="12.469" stroke-miterlimit="10"/>
</g>
<path d="M409.608 577.331L389.275 558.5C388.102 557.414 388.102 555.654 389.275 554.568L446.023 502.014C447.195 500.928 449.095 500.928 450.267 502.014L507.015 554.568C508.188 555.654 508.188 557.414 507.015 558.5L450.267 611.054C449.095 612.14 447.195 612.14 446.023 611.054L432.195 598.249" stroke="white" stroke-width="12.469" stroke-miterlimit="10"/>
<mask id="mask31_2350_2463" style="mask-type:luminance" maskUnits="userSpaceOnUse" x="329" y="494" width="135" height="126">
<path d="M329 620H463.829V494H329V620Z" fill="white"/>
</mask>
<g mask="url(#mask31_2350_2463)">
<path d="M434.951 536.203L455.284 555.034C456.457 556.12 456.457 557.88 455.284 558.966L398.536 611.52C397.365 612.606 395.464 612.606 394.292 611.52L337.544 558.966C336.372 557.88 336.372 556.12 337.544 555.034L394.292 502.48C395.464 501.394 397.365 501.394 398.536 502.48L412.365 515.285" stroke="white" stroke-width="12.469" stroke-miterlimit="10"/>
</g>
<path d="M588.608 577.331L568.275 558.5C567.102 557.414 567.102 555.654 568.275 554.568L625.023 502.014C626.195 500.928 628.095 500.928 629.267 502.014L686.015 554.568C687.188 555.654 687.188 557.414 686.015 558.5L629.267 611.054C628.095 612.14 626.195 612.14 625.023 611.054L611.195 598.249" stroke="white" stroke-width="12.469" stroke-miterlimit="10"/>
<mask id="mask32_2350_2463" style="mask-type:luminance" maskUnits="userSpaceOnUse" x="508" y="494" width="135" height="126">
<path d="M508 620H642.829V494H508V620Z" fill="white"/>
</mask>
<g mask="url(#mask32_2350_2463)">
<path d="M613.951 536.203L634.284 555.034C635.457 556.12 635.457 557.88 634.284 558.966L577.536 611.52C576.365 612.606 574.464 612.606 573.292 611.52L516.544 558.966C515.372 557.88 515.372 556.12 516.544 555.034L573.292 502.48C574.464 501.394 576.365 501.394 577.536 502.48L591.365 515.285" stroke="white" stroke-width="12.469" stroke-miterlimit="10"/>
</g>
<path d="M767.608 577.331L747.275 558.5C746.102 557.414 746.102 555.654 747.275 554.568L804.023 502.014C805.195 500.928 807.095 500.928 808.267 502.014L865.015 554.568C866.188 555.654 866.188 557.414 865.015 558.5L808.267 611.054C807.095 612.14 805.195 612.14 804.023 611.054L790.195 598.249" stroke="white" stroke-width="12.469" stroke-miterlimit="10"/>
<mask id="mask33_2350_2463" style="mask-type:luminance" maskUnits="userSpaceOnUse" x="687" y="494" width="135" height="126">
<path d="M687 620H821.829V494H687V620Z" fill="white"/>
</mask>
<g mask="url(#mask33_2350_2463)">
<path d="M792.951 536.203L813.284 555.034C814.457 556.12 814.457 557.88 813.284 558.966L756.536 611.52C755.365 612.606 753.464 612.606 752.292 611.52L695.544 558.966C694.372 557.88 694.372 556.12 695.544 555.034L752.292 502.48C753.464 501.394 755.365 501.394 756.536 502.48L770.365 515.285" stroke="white" stroke-width="12.469" stroke-miterlimit="10"/>
</g>
<path d="M946.608 577.331L926.275 558.5C925.102 557.414 925.102 555.654 926.275 554.568L983.023 502.014C984.195 500.928 986.095 500.928 987.267 502.014L1044.01 554.568C1045.19 555.654 1045.19 557.414 1044.01 558.5L987.267 611.054C986.095 612.14 984.195 612.14 983.023 611.054L969.195 598.249" stroke="white" stroke-width="12.469" stroke-miterlimit="10"/>
<mask id="mask34_2350_2463" style="mask-type:luminance" maskUnits="userSpaceOnUse" x="866" y="494" width="135" height="126">
<path d="M866 620H1000.83V494H866V620Z" fill="white"/>
</mask>
<g mask="url(#mask34_2350_2463)">
<path d="M971.951 536.203L992.284 555.034C993.457 556.12 993.457 557.88 992.284 558.966L935.536 611.52C934.365 612.606 932.464 612.606 931.292 611.52L874.544 558.966C873.372 557.88 873.372 556.12 874.544 555.034L931.292 502.48C932.464 501.394 934.365 501.394 935.536 502.48L949.365 515.285" stroke="white" stroke-width="12.469" stroke-miterlimit="10"/>
</g>
<path d="M-100.392 675.331L-120.725 656.5C-121.898 655.414 -121.898 653.654 -120.725 652.568L-63.9771 600.014C-62.8055 598.928 -60.9048 598.928 -59.7332 600.014L-2.9852 652.568C-1.81235 653.654 -1.81235 655.414 -2.9852 656.5L-59.7332 709.054C-60.9048 710.14 -62.8055 710.14 -63.9771 709.054L-77.8054 696.249" stroke="white" stroke-width="12.469" stroke-miterlimit="10"/>
<path d="M78.608 674.331L58.2749 655.5C57.1021 654.414 57.1021 652.654 58.2749 651.568L115.023 599.014C116.195 597.928 118.095 597.928 119.267 599.014L176.015 651.568C177.188 652.654 177.188 654.414 176.015 655.5L119.267 708.054C118.095 709.14 116.195 709.14 115.023 708.054L101.195 695.249" stroke="white" stroke-width="12.469" stroke-miterlimit="10"/>
<mask id="mask35_2350_2463" style="mask-type:luminance" maskUnits="userSpaceOnUse" x="-2" y="591" width="135" height="126">
<path d="M-2 717H132.829V591H-2V717Z" fill="white"/>
</mask>
<g mask="url(#mask35_2350_2463)">
<path d="M103.951 633.203L124.284 652.034C125.457 653.12 125.457 654.88 124.284 655.966L67.5363 708.52C66.3647 709.606 64.4641 709.606 63.2924 708.52L6.54443 655.966C5.37158 654.88 5.37158 653.12 6.54443 652.034L63.2924 599.48C64.4641 598.394 66.3647 598.394 67.5363 599.48L81.3647 612.285" stroke="white" stroke-width="12.469" stroke-miterlimit="10"/>
</g>
<path d="M257.608 667.331L237.275 648.5C236.102 647.414 236.102 645.654 237.275 644.568L294.023 592.014C295.195 590.928 297.095 590.928 298.267 592.014L355.015 644.568C356.188 645.654 356.188 647.414 355.015 648.5L298.267 701.054C297.095 702.14 295.195 702.14 294.023 701.054L280.195 688.249" stroke="white" stroke-width="12.469" stroke-miterlimit="10"/>
<mask id="mask36_2350_2463" style="mask-type:luminance" maskUnits="userSpaceOnUse" x="177" y="584" width="135" height="126">
<path d="M177 710H311.829V584H177V710Z" fill="white"/>
</mask>
<g mask="url(#mask36_2350_2463)">
<path d="M282.951 626.203L303.284 645.034C304.457 646.12 304.457 647.88 303.284 648.966L246.536 701.52C245.365 702.606 243.464 702.606 242.292 701.52L185.544 648.966C184.372 647.88 184.372 646.12 185.544 645.034L242.292 592.48C243.464 591.394 245.365 591.394 246.536 592.48L260.365 605.285" stroke="white" stroke-width="12.469" stroke-miterlimit="10"/>
</g>
<path d="M436.608 667.331L416.275 648.5C415.102 647.414 415.102 645.654 416.275 644.568L473.023 592.014C474.195 590.928 476.095 590.928 477.267 592.014L534.015 644.568C535.188 645.654 535.188 647.414 534.015 648.5L477.267 701.054C476.095 702.14 474.195 702.14 473.023 701.054L459.195 688.249" stroke="white" stroke-width="12.469" stroke-miterlimit="10"/>
<mask id="mask37_2350_2463" style="mask-type:luminance" maskUnits="userSpaceOnUse" x="356" y="584" width="135" height="126">
<path d="M356 710H490.829V584H356V710Z" fill="white"/>
</mask>
<g mask="url(#mask37_2350_2463)">
<path d="M461.951 626.203L482.284 645.034C483.457 646.12 483.457 647.88 482.284 648.966L425.536 701.52C424.365 702.606 422.464 702.606 421.292 701.52L364.544 648.966C363.372 647.88 363.372 646.12 364.544 645.034L421.292 592.48C422.464 591.394 424.365 591.394 425.536 592.48L439.365 605.285" stroke="white" stroke-width="12.469" stroke-miterlimit="10"/>
</g>
<path d="M615.608 667.331L595.275 648.5C594.102 647.414 594.102 645.654 595.275 644.568L652.023 592.014C653.195 590.928 655.095 590.928 656.267 592.014L713.015 644.568C714.188 645.654 714.188 647.414 713.015 648.5L656.267 701.054C655.095 702.14 653.195 702.14 652.023 701.054L638.195 688.249" stroke="white" stroke-width="12.469" stroke-miterlimit="10"/>
<mask id="mask38_2350_2463" style="mask-type:luminance" maskUnits="userSpaceOnUse" x="535" y="584" width="135" height="126">
<path d="M535 710H669.829V584H535V710Z" fill="white"/>
</mask>
<g mask="url(#mask38_2350_2463)">
<path d="M640.951 626.203L661.284 645.034C662.457 646.12 662.457 647.88 661.284 648.966L604.536 701.52C603.365 702.606 601.464 702.606 600.292 701.52L543.544 648.966C542.372 647.88 542.372 646.12 543.544 645.034L600.292 592.48C601.464 591.394 603.365 591.394 604.536 592.48L618.365 605.285" stroke="white" stroke-width="12.469" stroke-miterlimit="10"/>
</g>
<path d="M794.608 667.331L774.275 648.5C773.102 647.414 773.102 645.654 774.275 644.568L831.023 592.014C832.195 590.928 834.095 590.928 835.267 592.014L892.015 644.568C893.188 645.654 893.188 647.414 892.015 648.5L835.267 701.054C834.095 702.14 832.195 702.14 831.023 701.054L817.195 688.249" stroke="white" stroke-width="12.469" stroke-miterlimit="10"/>
<mask id="mask39_2350_2463" style="mask-type:luminance" maskUnits="userSpaceOnUse" x="714" y="584" width="135" height="126">
<path d="M714 710H848.829V584H714V710Z" fill="white"/>
</mask>
<g mask="url(#mask39_2350_2463)">
<path d="M819.951 626.203L840.284 645.034C841.457 646.12 841.457 647.88 840.284 648.966L783.536 701.52C782.365 702.606 780.464 702.606 779.292 701.52L722.544 648.966C721.372 647.88 721.372 646.12 722.544 645.034L779.292 592.48C780.464 591.394 782.365 591.394 783.536 592.48L797.365 605.285" stroke="white" stroke-width="12.469" stroke-miterlimit="10"/>
</g>
<mask id="mask40_2350_2463" style="mask-type:luminance" maskUnits="userSpaceOnUse" x="885" y="584" width="135" height="126">
<path d="M885 710H1019.83V584H885V710Z" fill="white"/>
</mask>
<g mask="url(#mask40_2350_2463)">
<path d="M990.951 626.203L1011.28 645.034C1012.46 646.12 1012.46 647.88 1011.28 648.966L954.536 701.52C953.365 702.606 951.464 702.606 950.292 701.52L893.544 648.966C892.372 647.88 892.372 646.12 893.544 645.034L950.292 592.48C951.464 591.394 953.365 591.394 954.536 592.48L968.365 605.285" stroke="white" stroke-width="12.469" stroke-miterlimit="10"/>
</g>
<path d="M26.608 787.331L6.2749 768.5C5.10205 767.414 5.10205 765.654 6.2749 764.568L63.0229 712.014C64.1945 710.928 66.0952 710.928 67.2668 712.014L124.015 764.568C125.188 765.654 125.188 767.414 124.015 768.5L67.2668 821.054C66.0952 822.14 64.1945 822.14 63.0229 821.054L49.1946 808.249" stroke="white" stroke-width="12.469" stroke-miterlimit="10"/>
<mask id="mask41_2350_2463" style="mask-type:luminance" maskUnits="userSpaceOnUse" x="-54" y="704" width="135" height="126">
<path d="M-54 830H80.8286V704H-54V830Z" fill="white"/>
</mask>
<g mask="url(#mask41_2350_2463)">
<path d="M51.9512 746.203L72.2843 765.034C73.4572 766.12 73.4572 767.88 72.2843 768.966L15.5363 821.52C14.3647 822.606 12.4641 822.606 11.2924 821.52L-45.4556 768.966C-46.6284 767.88 -46.6284 766.12 -45.4556 765.034L11.2924 712.48C12.4641 711.394 14.3647 711.394 15.5363 712.48L29.3647 725.285" stroke="white" stroke-width="12.469" stroke-miterlimit="10"/>
</g>
<path d="M205.608 779.331L185.275 760.5C184.102 759.414 184.102 757.654 185.275 756.568L242.023 704.014C243.195 702.928 245.095 702.928 246.267 704.014L303.015 756.568C304.188 757.654 304.188 759.414 303.015 760.5L246.267 813.054C245.095 814.14 243.195 814.14 242.023 813.054L228.195 800.249" stroke="white" stroke-width="12.469" stroke-miterlimit="10"/>
<mask id="mask42_2350_2463" style="mask-type:luminance" maskUnits="userSpaceOnUse" x="125" y="696" width="135" height="126">
<path d="M125 822H259.829V696H125V822Z" fill="white"/>
</mask>
<g mask="url(#mask42_2350_2463)">
<path d="M230.951 738.203L251.284 757.034C252.457 758.12 252.457 759.88 251.284 760.966L194.536 813.52C193.365 814.606 191.464 814.606 190.292 813.52L133.544 760.966C132.372 759.88 132.372 758.12 133.544 757.034L190.292 704.48C191.464 703.394 193.365 703.394 194.536 704.48L208.365 717.285" stroke="white" stroke-width="12.469" stroke-miterlimit="10"/>
</g>
<path d="M384.608 779.331L364.275 760.5C363.102 759.414 363.102 757.654 364.275 756.568L421.023 704.014C422.195 702.928 424.095 702.928 425.267 704.014L482.015 756.568C483.188 757.654 483.188 759.414 482.015 760.5L425.267 813.054C424.095 814.14 422.195 814.14 421.023 813.054L407.195 800.249" stroke="white" stroke-width="12.469" stroke-miterlimit="10"/>
<mask id="mask43_2350_2463" style="mask-type:luminance" maskUnits="userSpaceOnUse" x="304" y="696" width="135" height="126">
<path d="M304 822H438.829V696H304V822Z" fill="white"/>
</mask>
<g mask="url(#mask43_2350_2463)">
<path d="M409.951 738.203L430.284 757.034C431.457 758.12 431.457 759.88 430.284 760.966L373.536 813.52C372.365 814.606 370.464 814.606 369.292 813.52L312.544 760.966C311.372 759.88 311.372 758.12 312.544 757.034L369.292 704.48C370.464 703.394 372.365 703.394 373.536 704.48L387.365 717.285" stroke="white" stroke-width="12.469" stroke-miterlimit="10"/>
</g>
<path d="M563.608 779.331L543.275 760.5C542.102 759.414 542.102 757.654 543.275 756.568L600.023 704.014C601.195 702.928 603.095 702.928 604.267 704.014L661.015 756.568C662.188 757.654 662.188 759.414 661.015 760.5L604.267 813.054C603.095 814.14 601.195 814.14 600.023 813.054L586.195 800.249" stroke="white" stroke-width="12.469" stroke-miterlimit="10"/>
<mask id="mask44_2350_2463" style="mask-type:luminance" maskUnits="userSpaceOnUse" x="483" y="696" width="135" height="126">
<path d="M483 822H617.829V696H483V822Z" fill="white"/>
</mask>
<g mask="url(#mask44_2350_2463)">
<path d="M588.951 738.203L609.284 757.034C610.457 758.12 610.457 759.88 609.284 760.966L552.536 813.52C551.365 814.606 549.464 814.606 548.292 813.52L491.544 760.966C490.372 759.88 490.372 758.12 491.544 757.034L548.292 704.48C549.464 703.394 551.365 703.394 552.536 704.48L566.365 717.285" stroke="white" stroke-width="12.469" stroke-miterlimit="10"/>
</g>
<path d="M742.608 779.331L722.275 760.5C721.102 759.414 721.102 757.654 722.275 756.568L779.023 704.014C780.195 702.928 782.095 702.928 783.267 704.014L840.015 756.568C841.188 757.654 841.188 759.414 840.015 760.5L783.267 813.054C782.095 814.14 780.195 814.14 779.023 813.054L765.195 800.249" stroke="white" stroke-width="12.469" stroke-miterlimit="10"/>
<mask id="mask45_2350_2463" style="mask-type:luminance" maskUnits="userSpaceOnUse" x="662" y="696" width="135" height="126">
<path d="M662 822H796.829V696H662V822Z" fill="white"/>
</mask>
<g mask="url(#mask45_2350_2463)">
<path d="M767.951 738.203L788.284 757.034C789.457 758.12 789.457 759.88 788.284 760.966L731.536 813.52C730.365 814.606 728.464 814.606 727.292 813.52L670.544 760.966C669.372 759.88 669.372 758.12 670.544 757.034L727.292 704.48C728.464 703.394 730.365 703.394 731.536 704.48L745.365 717.285" stroke="white" stroke-width="12.469" stroke-miterlimit="10"/>
</g>
<path d="M921.608 779.331L901.275 760.5C900.102 759.414 900.102 757.654 901.275 756.568L958.023 704.014C959.195 702.928 961.095 702.928 962.267 704.014L1019.01 756.568C1020.19 757.654 1020.19 759.414 1019.01 760.5L962.267 813.054C961.095 814.14 959.195 814.14 958.023 813.054L944.195 800.249" stroke="white" stroke-width="12.469" stroke-miterlimit="10"/>
<mask id="mask46_2350_2463" style="mask-type:luminance" maskUnits="userSpaceOnUse" x="841" y="696" width="135" height="126">
<path d="M841 822H975.829V696H841V822Z" fill="white"/>
</mask>
<g mask="url(#mask46_2350_2463)">
<path d="M946.951 738.203L967.284 757.034C968.457 758.12 968.457 759.88 967.284 760.966L910.536 813.52C909.365 814.606 907.464 814.606 906.292 813.52L849.544 760.966C848.372 759.88 848.372 758.12 849.544 757.034L906.292 704.48C907.464 703.394 909.365 703.394 910.536 704.48L924.365 717.285" stroke="white" stroke-width="12.469" stroke-miterlimit="10"/>
</g>
</g>
<defs>
<clipPath id="clip0_2350_2463">
<rect width="919" height="1041" fill="white"/>
</clipPath>
</defs>
</svg>
