<svg width="204" height="138" viewBox="0 0 204 138" fill="none" xmlns="http://www.w3.org/2000/svg">
<path d="M88.1098 91.567L66.0578 71.1443C64.7858 69.967 64.7858 68.0577 66.0578 66.8803L127.603 9.883C128.874 8.70567 130.935 8.70567 132.206 9.883L193.751 66.8803C195.023 68.0577 195.023 69.967 193.751 71.1443L132.206 128.142C130.935 129.319 128.874 129.319 127.603 128.142L112.606 114.254" stroke="#205A8A" stroke-width="16.6253" stroke-miterlimit="10"/>
<path d="M115.595 46.963L137.647 67.3857C138.919 68.563 138.919 70.4723 137.647 71.6497L76.102 128.647C74.8313 129.824 72.77 129.824 71.4993 128.647L9.954 71.6497C8.682 70.4723 8.682 68.563 9.954 67.3857L71.4993 10.3883C72.77 9.21101 74.8313 9.21101 76.102 10.3883L91.0993 24.2763" stroke="#382E7A" stroke-width="16.6253" stroke-miterlimit="10"/>
</svg>
