<?xml version="1.0" standalone="no"?>
<!DOCTYPE svg PUBLIC "-//W3C//DTD SVG 20010904//EN"
 "http://www.w3.org/TR/2001/REC-SVG-20010904/DTD/svg10.dtd">
<svg version="1.0" xmlns="http://www.w3.org/2000/svg"
 width="512.000000pt" height="512.000000pt" viewBox="0 0 512.000000 512.000000"
 preserveAspectRatio="xMidYMid meet">

<g transform="translate(0.000000,512.000000) scale(0.100000,-0.100000)"
fill="#000000" stroke="none">
<path d="M2330 5110 c-891 -86 -1667 -619 -2060 -1415 -160 -324 -236 -605
-262 -973 -24 -335 30 -719 147 -1038 54 -147 184 -404 271 -534 611 -915
1716 -1339 2775 -1066 429 110 815 328 1138 641 816 793 1013 2010 487 3020
-203 390 -528 744 -902 980 -113 72 -360 193 -488 240 -135 50 -345 103 -501
126 -151 23 -462 32 -605 19z m378 -1286 c44 -9 117 -35 172 -61 80 -39 108
-59 186 -137 78 -78 98 -106 137 -186 26 -55 52 -128 61 -172 33 -162 13 -314
-61 -468 -39 -80 -59 -108 -137 -186 -78 -78 -106 -98 -186 -137 -213 -103
-427 -103 -640 0 -80 39 -108 59 -186 137 -78 78 -98 106 -137 186 -103 213
-103 427 0 640 39 81 59 108 137 186 78 78 105 98 186 137 154 74 306 94 468
61z m445 -1936 c112 -31 256 -96 348 -159 146 -98 291 -266 374 -431 53 -107
60 -89 -80 -206 -719 -602 -1751 -602 -2470 0 -140 117 -133 99 -80 205 159
317 458 544 802 607 62 12 172 14 543 12 l465 -2 98 -26z"/>
</g>
</svg>
